<mxfile host="app.diagrams.net" modified="2024-03-06T07:21:00.814Z" agent="Mozilla/5.0 (Windows NT 10.0; Win64; x64) AppleWebKit/537.36 (KHTML, like Gecko) Chrome/122.0.0.0 Safari/537.36 Edg/122.0.0.0" etag="gHh7fgAa0nZOJaVrKsBz" version="24.0.1" type="device">
  <diagram name="Page-1" id="eOZoPtdF6AOH-1mpunKZ">
    <mxGraphModel dx="1386" dy="793" grid="0" gridSize="10" guides="1" tooltips="1" connect="1" arrows="1" fold="1" page="1" pageScale="1" pageWidth="850" pageHeight="1100" background="#b8b784" math="0" shadow="0">
      <root>
        <mxCell id="0" />
        <mxCell id="1" parent="0" />
        <mxCell id="tQw_C3F5uXbMwOZARNFG-9" value="Merchant" style="shape=umlLifeline;perimeter=lifelinePerimeter;whiteSpace=wrap;html=1;container=1;dropTarget=0;collapsible=0;recursiveResize=0;outlineConnect=0;portConstraint=eastwest;newEdgeStyle={&quot;curved&quot;:0,&quot;rounded&quot;:0};fontSize=20;" vertex="1" parent="1">
          <mxGeometry x="102" y="69" width="100" height="620" as="geometry" />
        </mxCell>
        <mxCell id="tQw_C3F5uXbMwOZARNFG-10" value="Customer" style="shape=umlLifeline;perimeter=lifelinePerimeter;whiteSpace=wrap;html=1;container=1;dropTarget=0;collapsible=0;recursiveResize=0;outlineConnect=0;portConstraint=eastwest;newEdgeStyle={&quot;curved&quot;:0,&quot;rounded&quot;:0};fontSize=20;" vertex="1" parent="1">
          <mxGeometry x="348" y="64" width="184" height="622" as="geometry" />
        </mxCell>
        <mxCell id="tQw_C3F5uXbMwOZARNFG-11" value="Bank" style="shape=umlLifeline;perimeter=lifelinePerimeter;whiteSpace=wrap;html=1;container=1;dropTarget=0;collapsible=0;recursiveResize=0;outlineConnect=0;portConstraint=eastwest;newEdgeStyle={&quot;curved&quot;:0,&quot;rounded&quot;:0};fontSize=20;" vertex="1" parent="1">
          <mxGeometry x="635" y="64" width="100" height="629" as="geometry" />
        </mxCell>
        <mxCell id="tQw_C3F5uXbMwOZARNFG-25" value="" style="html=1;points=[[0,0,0,0,5],[0,1,0,0,-5],[1,0,0,0,5],[1,1,0,0,-5]];perimeter=orthogonalPerimeter;outlineConnect=0;targetShapes=umlLifeline;portConstraint=eastwest;newEdgeStyle={&quot;curved&quot;:0,&quot;rounded&quot;:0};fontSize=20;" vertex="1" parent="tQw_C3F5uXbMwOZARNFG-11">
          <mxGeometry x="6" y="92" width="84" height="537" as="geometry" />
        </mxCell>
        <mxCell id="tQw_C3F5uXbMwOZARNFG-13" value="" style="html=1;points=[[0,0,0,0,5],[0,1,0,0,-5],[1,0,0,0,5],[1,1,0,0,-5]];perimeter=orthogonalPerimeter;outlineConnect=0;targetShapes=umlLifeline;portConstraint=eastwest;newEdgeStyle={&quot;curved&quot;:0,&quot;rounded&quot;:0};fontSize=20;" vertex="1" parent="1">
          <mxGeometry x="414" y="159" width="75" height="242" as="geometry" />
        </mxCell>
        <mxCell id="tQw_C3F5uXbMwOZARNFG-15" value="check shipment&lt;div style=&quot;font-size: 20px;&quot;&gt;&lt;br style=&quot;font-size: 20px;&quot;&gt;&lt;/div&gt;" style="html=1;verticalAlign=bottom;endArrow=block;curved=0;rounded=0;fontSize=20;" edge="1" parent="1">
          <mxGeometry width="80" relative="1" as="geometry">
            <mxPoint x="206" y="261" as="sourcePoint" />
            <mxPoint x="423" y="264" as="targetPoint" />
          </mxGeometry>
        </mxCell>
        <mxCell id="tQw_C3F5uXbMwOZARNFG-21" value="shipment is done" style="html=1;verticalAlign=bottom;endArrow=open;dashed=1;endSize=8;curved=0;rounded=0;fontSize=20;" edge="1" parent="1" target="tQw_C3F5uXbMwOZARNFG-12">
          <mxGeometry relative="1" as="geometry">
            <mxPoint x="393" y="309" as="sourcePoint" />
            <mxPoint x="313" y="309" as="targetPoint" />
          </mxGeometry>
        </mxCell>
        <mxCell id="tQw_C3F5uXbMwOZARNFG-23" value="" style="shape=umlDestroy;whiteSpace=wrap;html=1;strokeWidth=3;targetShapes=umlLifeline;fontSize=20;" vertex="1" parent="1">
          <mxGeometry x="432" y="385" width="30" height="30" as="geometry" />
        </mxCell>
        <mxCell id="tQw_C3F5uXbMwOZARNFG-26" value="" style="html=1;verticalAlign=bottom;endArrow=block;curved=0;rounded=0;fontSize=20;" edge="1" parent="1" target="tQw_C3F5uXbMwOZARNFG-13">
          <mxGeometry width="80" relative="1" as="geometry">
            <mxPoint x="207" y="373" as="sourcePoint" />
            <mxPoint x="468" y="408" as="targetPoint" />
          </mxGeometry>
        </mxCell>
        <mxCell id="tQw_C3F5uXbMwOZARNFG-12" value="" style="html=1;points=[[0,0,0,0,5],[0,1,0,0,-5],[1,0,0,0,5],[1,1,0,0,-5]];perimeter=orthogonalPerimeter;outlineConnect=0;targetShapes=umlLifeline;portConstraint=eastwest;newEdgeStyle={&quot;curved&quot;:0,&quot;rounded&quot;:0};fontSize=20;" vertex="1" parent="1">
          <mxGeometry x="114" y="156" width="90" height="519" as="geometry" />
        </mxCell>
        <mxCell id="tQw_C3F5uXbMwOZARNFG-28" value="Request for payment, merch account no" style="html=1;verticalAlign=bottom;endArrow=block;curved=0;rounded=0;fontSize=20;" edge="1" parent="1">
          <mxGeometry width="80" relative="1" as="geometry">
            <mxPoint x="211" y="540" as="sourcePoint" />
            <mxPoint x="640" y="540" as="targetPoint" />
          </mxGeometry>
        </mxCell>
        <mxCell id="tQw_C3F5uXbMwOZARNFG-29" value="payment is done" style="html=1;verticalAlign=bottom;endArrow=open;dashed=1;endSize=8;curved=0;rounded=0;fontSize=20;" edge="1" parent="1">
          <mxGeometry x="-0.0435" y="-8" relative="1" as="geometry">
            <mxPoint x="641" y="645" as="sourcePoint" />
            <mxPoint x="204" y="645" as="targetPoint" />
            <Array as="points">
              <mxPoint x="403" y="645" />
              <mxPoint x="320" y="645" />
            </Array>
            <mxPoint as="offset" />
          </mxGeometry>
        </mxCell>
      </root>
    </mxGraphModel>
  </diagram>
</mxfile>
